<?xml version="1.0" encoding="utf-8"?>
<!-- Generator: Adobe Illustrator 16.0.0, SVG Export Plug-In . SVG Version: 6.00 Build 0)  -->
<!DOCTYPE svg PUBLIC "-//W3C//DTD SVG 1.1//EN" "http://www.w3.org/Graphics/SVG/1.1/DTD/svg11.dtd">
<svg version="1.1" id="Camada_1" xmlns="http://www.w3.org/2000/svg" xmlns:xlink="http://www.w3.org/1999/xlink" x="0px" y="0px"
	 width="115.001px" height="115.002px" viewBox="0 0 115.001 115.002" enable-background="new 0 0 115.001 115.002"
	 xml:space="preserve">
<g>
	<g>
		<path fill="#54ACD7" d="M16.221,46.927c3.842-1.677,7.47-3.261,10.015-4.141c1.638-0.566,3.239-1.256,4.789-1.923
			c3.853-1.659,7.837-3.375,12.711-3.375c0.974,0,1.968,0.07,2.955,0.207c5.167,0.719,8.964,3.54,12.636,6.268
			c1.934,1.438,3.936,2.924,6.106,4.067c2.758,1.452,13.15,5.804,21.002,9.063c2.758-0.602,5.896-1.234,9.004-1.532
			c2.467-0.236,5.195-0.352,8.342-0.352c1.584,0,3.158,0.027,4.883,0.071c-1.168-27.2-23.699-48.991-51.16-48.991
			c-25.834,0-47.555,19.379-50.784,44.673C9.871,49.699,13.198,48.246,16.221,46.927z"/>
		<path fill="#336535" d="M56.94,47.174c-3.419-2.539-6.648-4.938-10.801-5.517c-0.805-0.112-1.614-0.169-2.404-0.169
			c-4.05,0-7.488,1.481-11.128,3.049c-1.616,0.695-3.287,1.415-5.064,2.029c-2.396,0.828-5.954,2.382-9.721,4.026
			c-3.648,1.593-7.734,3.377-11.48,4.813c-0.035,0.755-0.052,1.438-0.052,2.095c0,4.958,0.714,9.866,2.125,14.609
			c6.449,1.111,12.994,2.804,19.474,5.036c1.614,0.557,3.26,1.262,5.121,2.197c10.004-4.275,18.413-7.923,21.086-9.589
			c1.361-0.848,2.503-1.96,3.712-3.139c1.589-1.547,3.233-3.147,5.542-4.351c3.381-1.759,6.225-2.125,9.52-2.549L74,59.569
			c1.861-0.248,3.744-0.597,5.617-0.983c-9.102-3.807-14.133-6.008-16.049-7.017C61.125,50.282,58.997,48.702,56.94,47.174z"/>
		<path fill="#70A83B" d="M86.675,61.134l-1.922,0.428c-3.328,0.743-6.768,1.512-10.225,1.973l-1.15,0.149
			c-3.154,0.406-5.432,0.699-8.182,2.13c-1.787,0.931-3.152,2.261-4.598,3.669c-1.309,1.273-2.662,2.591-4.389,3.668
			c-2.644,1.646-9.633,4.729-18.732,8.631c0.761,0.439,1.515,0.882,2.258,1.319c5.004,2.941,9.73,5.72,14.966,6.589
			c4.963,0.825,10.264,0.937,14.793,0.937c1.75,0,3.496-0.02,5.223-0.038c1.701-0.019,3.383-0.036,5.031-0.036
			c4.971,0,9.592,0.703,14.834,2.27c6.504-6.825,10.979-15.258,12.965-24.461c0.646-2.993,1.027-6.038,1.133-9.078
			c-1.742-0.045-3.32-0.073-4.902-0.073c-3.018,0-5.621,0.109-7.961,0.333C93.013,59.812,90.136,60.373,86.675,61.134z"/>
		<path fill="#664D2D" d="M74.761,94.588c-1.74,0.019-3.5,0.038-5.266,0.038c-4.693,0-10.198-0.118-15.448-0.99
			c-5.967-0.991-11.239-4.09-16.337-7.087c-1.865-1.096-3.793-2.229-5.702-3.224c-2.038-1.063-3.761-1.824-5.423-2.397
			c-5.545-1.91-11.136-3.411-16.665-4.477c1.658,4.17,3.851,8.089,6.54,11.686c9.779,13.076,24.738,20.575,41.043,20.575
			c12.541,0,24.392-4.477,33.732-12.675c-3.984-1.031-7.563-1.485-11.484-1.485C78.115,94.552,76.447,94.569,74.761,94.588z"/>
	</g>
	<circle fill="none" stroke="#000000" stroke-width="2" stroke-miterlimit="10" cx="57.501" cy="57.501" r="56.501"/>
</g>
</svg>
